<svg xmlns="http://www.w3.org/2000/svg" viewBox="0 0 64 64" fill="#4a5568">
  <!-- Wrench -->
  <path d="M52 8c-4 0-7.5 2-9.5 5L24 31.5c-1-0.3-2-0.5-3-0.5c-6.6 0-12 5.4-12 12s5.4 12 12 12s12-5.4 12-12c0-1-0.2-2-0.5-3L51 21.5c3-2 5-5.5 5-9.5c0-1-0.2-2-0.4-3L48 16l-4-4l7.6-7.6C50 4.2 49 4 48 4" stroke="#4a5568" stroke-width="4" fill="none" stroke-linecap="round" stroke-linejoin="round"/>
  <circle cx="21" cy="43" r="4" fill="#4a5568"/>
  <!-- Screwdriver -->
  <path d="M44 56L56 44L52 40L40 52L44 56Z" fill="#4a5568"/>
  <path d="M38 50L28 40L32 36L42 46L38 50Z" fill="#4a5568"/>
  <rect x="24" y="32" width="8" height="4" transform="rotate(45 28 34)" fill="#4a5568"/>
</svg>
