<svg xmlns="http://www.w3.org/2000/svg" viewBox="0 0 24 16">
  <rect width="24" height="16" fill="#fff"/>
  <rect width="24" height="1.23" y="0" fill="#b22234"/>
  <rect width="24" height="1.23" y="2.46" fill="#b22234"/>
  <rect width="24" height="1.23" y="4.92" fill="#b22234"/>
  <rect width="24" height="1.23" y="7.38" fill="#b22234"/>
  <rect width="24" height="1.23" y="9.84" fill="#b22234"/>
  <rect width="24" height="1.23" y="12.3" fill="#b22234"/>
  <rect width="24" height="1.23" y="14.77" fill="#b22234"/>
  <rect width="9.6" height="8.61" fill="#3c3b6e"/>
  <g fill="#fff">
    <circle cx="2" cy="1.5" r="0.5"/>
    <circle cx="4" cy="1.5" r="0.5"/>
    <circle cx="6" cy="1.5" r="0.5"/>
    <circle cx="8" cy="1.5" r="0.5"/>
    <circle cx="3" cy="3" r="0.5"/>
    <circle cx="5" cy="3" r="0.5"/>
    <circle cx="7" cy="3" r="0.5"/>
    <circle cx="2" cy="4.5" r="0.5"/>
    <circle cx="4" cy="4.5" r="0.5"/>
    <circle cx="6" cy="4.5" r="0.5"/>
    <circle cx="8" cy="4.5" r="0.5"/>
    <circle cx="3" cy="6" r="0.5"/>
    <circle cx="5" cy="6" r="0.5"/>
    <circle cx="7" cy="6" r="0.5"/>
  </g>
</svg>
