<svg xmlns="http://www.w3.org/2000/svg" viewBox="0 0 40 40" fill="none">
  <rect width="40" height="40" rx="8" fill="#8e44ad" opacity="0.15"/>
  <path d="M20 8C13.4 8 8 13.4 8 20s5.4 12 12 12 12-5.4 12-12S26.6 8 20 8zm0 2c5.5 0 10 4.5 10 10s-4.5 10-10 10S10 25.5 10 20 14.5 10 20 10z" fill="#8e44ad" opacity="0.3"/>
  <circle cx="15" cy="18" r="2" fill="#8e44ad"/>
  <circle cx="25" cy="18" r="2" fill="#8e44ad"/>
  <path d="M14 24c0 0 2 3 6 3s6-3 6-3" stroke="#8e44ad" stroke-width="1.5" stroke-linecap="round"/>
  <path d="M20 6v3M12 9l1.5 2.5M28 9l-1.5 2.5" stroke="#8e44ad" stroke-width="1.5" stroke-linecap="round"/>
</svg>
