<svg xmlns="http://www.w3.org/2000/svg" viewBox="0 0 64 64" fill="none" stroke="#423d3c" stroke-width="3.2" stroke-linecap="round" stroke-linejoin="round">
  <!-- back sheet (furthest, upper-right) -->
  <path d="M30 6 H56 a2 2 0 0 1 2 2 V46 a2 2 0 0 1 -2 2 H52" fill="#ffffff"/>
  <!-- middle sheet -->
  <path d="M24 10 H50 a2 2 0 0 1 2 2 V50 a2 2 0 0 1 -2 2 H46" fill="#ffffff"/>
  <!-- front sheet with curled bottom -->
  <path d="M16 16 a2 2 0 0 1 2 -2 H44 a2 2 0 0 1 2 2 V50
           c0 4 -2 6 -6 6 H22
           c-4 0 -6 -1 -6 -5
           c0 -3 2 -4 4 -4" fill="#ffffff"/>
  <!-- text lines -->
  <line x1="23" y1="24" x2="39" y2="24"/>
  <line x1="23" y1="32" x2="40" y2="32"/>
  <line x1="23" y1="40" x2="34" y2="40"/>
</svg>
